<?xml version="1.0" encoding="UTF-8" standalone="no"?>
<!-- Creator: CorelDRAW -->

<svg
   xmlns:dc="http://purl.org/dc/elements/1.1/"
   xmlns:cc="http://creativecommons.org/ns#"
   xmlns:rdf="http://www.w3.org/1999/02/22-rdf-syntax-ns#"
   xmlns:svg="http://www.w3.org/2000/svg"
   xmlns="http://www.w3.org/2000/svg"
   xmlns:sodipodi="http://sodipodi.sourceforge.net/DTD/sodipodi-0.dtd"
   xmlns:inkscape="http://www.inkscape.org/namespaces/inkscape"
   xml:space="preserve"
   width="280.00314mm"
   height="132.16463mm"
   style="clip-rule:evenodd;fill-rule:evenodd;image-rendering:optimizeQuality;shape-rendering:geometricPrecision;text-rendering:geometricPrecision"
   viewBox="0 0 280.00314 132.16463"
   version="1.1"
   id="svg41"
   sodipodi:docname="car-10.svg"
   inkscape:version="0.92.3 (2405546, 2018-03-11)"><metadata
   id="metadata45"><rdf:RDF><cc:Work
       rdf:about=""><dc:format>image/svg+xml</dc:format><dc:type
         rdf:resource="http://purl.org/dc/dcmitype/StillImage" /><dc:title></dc:title></cc:Work></rdf:RDF></metadata><sodipodi:namedview
   pagecolor="#ffffff"
   bordercolor="#666666"
   borderopacity="1"
   objecttolerance="10"
   gridtolerance="10"
   guidetolerance="10"
   inkscape:pageopacity="0"
   inkscape:pageshadow="2"
   inkscape:window-width="1920"
   inkscape:window-height="1017"
   id="namedview43"
   showgrid="false"
   fit-margin-top="0"
   fit-margin-left="0"
   fit-margin-right="0"
   fit-margin-bottom="0"
   showborder="false"
   inkscape:zoom="1.6678012"
   inkscape:cx="529.1398"
   inkscape:cy="249.75993"
   inkscape:window-x="-4"
   inkscape:window-y="9"
   inkscape:window-maximized="1"
   inkscape:current-layer="svg41" />
 <defs
   id="defs4"><style
     type="text/css"
     id="style2">
   <![CDATA[
    .str0 {stroke:#1F1A17;stroke-width:0.0762}
    .fil4 {fill:#007CC3}
    .fil6 {fill:#1F1A17}
    .fil0 {fill:#605D5C}
    .fil8 {fill:#BAB3D6}
    .fil1 {fill:#C2C1C1}
    .fil5 {fill:#C4BF66}
    .fil2 {fill:#DA251D}
    .fil7 {fill:#E7785F}
    .fil3 {fill:#FFFB9C}
   ]]>
  </style></defs>
 <g
   id="Ebene_x0020_1"
   transform="translate(-8.1067268,-24.691746)">
  <metadata
   id="CorelCorpID_0Corel-Layer" />
  <g
   id="_131522096">
   <path
   id="_131524208"
   class="fil0"
   d="m 25.3959,122.123 c 10.2047,12.4704 37.63,24.3159 59.2313,25.563 42.3971,26.4667 64.7428,-13.3004 98.5109,-8.1054 44.1798,8.5509 33.9566,18.6223 62.3487,8.7289 14.9637,-17.4577 51.7494,-17.4577 40.5267,-40.5267 C 235.0404,71.1398 6.8125,21.2854 25.3955,122.123 Z"
   inkscape:connector-curvature="0"
   style="fill:#605d5c" />
   <ellipse
   id="_131524136"
   class="fil1"
   cx="115.178"
   cy="139.58"
   rx="9.97579"
   ry="9.3522997"
   style="fill:#c2c1c1" />
   <ellipse
   id="_131524064"
   class="fil1"
   cx="237.381"
   cy="130.85201"
   rx="9.97579"
   ry="9.3522997"
   style="fill:#c2c1c1" />
   <path
   id="_131523992"
   class="fil2"
   d="m 73.5967,52.2493 c -25.438,4.3465 -49.1836,9.2573 -61.087,18.1154 -1.4043,5.898 -2.8086,11.7961 -4.2129,17.6941 16.009,15.3069 32.018,30.6137 48.027,45.9206 12.2174,-1.4043 24.4348,-2.8086 36.6522,-4.2129 11.2331,-7.5973 14.9251,-32.5957 43.3928,-0.4213 24.0135,-1.966 43.8141,-4.3533 67.8276,-6.3194 11.1786,-10.0713 16.9,-36.8768 51.8185,0 7.3024,-0.7021 14.6047,-1.4042 21.9071,-2.1064 1.966,-10.9535 3.932,-21.907 5.898,-32.8606 C 269.0749,76.9649 254.3298,65.8709 239.5846,54.777 221.1882,42.7 198.2981,33.9934 170.9145,28.6571 153.1859,24.9305 134.5787,26.4768 115.7256,29.4996 101.6826,37.0828 87.6397,44.666 73.5967,52.2493 Z"
   inkscape:connector-curvature="0"
   style="fill:#da251d" />
   <path
   id="_131523920"
   class="fil3"
   d="m 56.9339,110.505 c 2.7656,-0.6272 5.6855,1.2746 6.4998,4.2335 0.8142,2.9589 -0.7773,5.2125 -3.543,5.8397 -2.7657,0.6272 -5.6854,-0.6035 -6.4997,-3.5623 -0.8143,-2.9589 0.7772,-5.8839 3.5429,-6.5109 z"
   inkscape:connector-curvature="0"
   style="fill:#fffb9c" />
   <path
   id="_131523848"
   class="fil3"
   d="m 21.495,81.4355 c 2.4662,-0.6272 5.0699,1.2747 5.796,4.2336 0.7261,2.9588 -0.6931,5.2125 -3.1594,5.8396 -2.4661,0.6272 -5.0697,-0.6035 -5.7958,-3.5622 -0.7261,-2.9589 0.6931,-5.8839 3.1592,-6.511 z"
   inkscape:connector-curvature="0"
   style="fill:#fffb9c" />
   <path
   id="_131523776"
   class="fil4"
   d="m 117.664,28.8159 c -17.6365,3.9789 -32.9165,10.6197 -44.3292,23.2979 22.9267,11.8342 44.6808,26.7342 66.3574,42.3182 8.857,-3.8525 20.4171,-8.4059 55.7737,-4.6869 2.2366,-11.0925 5.7478,-19.3726 7.499,-29.0585 -11.2485,0.6248 -15.9354,1.2497 -27.1838,1.8747 C 157.0336,51.7815 136.4114,39.5957 117.664,28.8159 Z"
   inkscape:connector-curvature="0"
   style="fill:#007cc3" />
   <path
   id="_131523704"
   class="fil4"
   d="m 207.183,87.8704 c 7.821,4.9528 18.951,-5.7881 55.7737,-14.5293 -8.2301,-6.7523 -18.3194,-14.6774 -20.6222,-16.8727 -11.2485,0.6248 -21.0909,3.5932 -32.3393,4.2182 -0.6292,5.5906 -4.9559,20.8353 -2.8122,27.1838 z"
   inkscape:connector-curvature="0"
   style="fill:#007cc3" />
   <path
   id="_131523632"
   class="fil5"
   d="m 58.9256,126.882 c 0.8788,-0.7451 0.9512,-2.8312 1.7165,-3.676 1.2722,0.6945 1.9417,1.5264 3.5891,1.6532 1.8504,-0.4541 2.2419,-1.2018 4.2668,-1.9568 0.1437,0.4829 -1.3011,5.2851 -1.8089,5.5457 -3.0723,0 -2.2609,0.5506 -5.3332,0.5506 -0.6863,-0.5269 -2.3495,-1.5053 -2.4303,-2.1167 z"
   inkscape:connector-curvature="0"
   style="fill:#c4bf66" />
   <path
   id="_131523560"
   class="fil5"
   d="M 13.4435,85.2136 C 12.582,84.4486 11.4591,84.0992 10.515,83.4605 l 1.0695,-5.8297 c 0.4579,-0.2102 2.9392,-1.1709 3.2687,-0.7048 0.2343,1.6468 1.6058,7.4446 -1.4097,8.2876 z"
   inkscape:connector-curvature="0"
   style="fill:#c4bf66" />
   <path
   id="_131523488"
   class="fil5"
   d="m 272.714,117.729 c 0.4856,-1.0447 -0.234,-3.0578 0.1068,-4.1455 5.0589,0.3409 3.7781,-0.3146 7.0061,-3.5672 0.3328,0.3784 1.0329,5.344 0.6811,5.7934 -1.4456,0.6669 -3.3857,5.0266 -7.794,1.9193 z"
   inkscape:connector-curvature="0"
   style="fill:#c4bf66" />
   <path
   id="_131523440"
   class="fil6 str0"
   d="M 69.9891,105.735 C 52.3178,93.0955 33.9051,78.2273 22.4361,71.8135 c 3.6911,7.7573 28.1089,23.316 45.3354,36.1679 -0.4895,7.4103 -2.1333,12.504 -3.9422,17.267 2.2174,-0.33 4.1067,-5.2764 7.638,-14.8387 16.71,-9.3277 44.7703,-10.8529 68.2494,-15.0855 10.9282,-11.9597 9.9578,-23.303 37.9441,-32.1504 23.5781,0.8823 48.3467,1.8722 59.6258,-7.6664 -22.4029,2.4482 -44.0577,4.2737 -63.0755,5.0232 -22.7604,6.7179 -25.3876,19.3348 -36.4653,31.9148 -22.8003,3.7189 -49.608,4.9011 -67.7567,13.2896 z m 3.7261,-55.0909 c 13.718,9.128 41.8632,23.1526 56.8815,36.9021 0.2608,2.2592 -1.1225,1.2172 -2.4996,1.0941 C 108.2297,74.5668 95.672,63.8318 73.1768,53.7147 54.6323,58.2876 32.7014,59.2438 18.0011,69.6038 c -5.8474,2.6052 -4.6866,10.4861 -4.9277,17.3117 3.8771,8.1779 27.0263,26.907 46.3209,43.5263 10.6731,-0.7178 18.2253,-3.9084 31.5275,-4.6256 7.3977,-21.6314 31.0688,-19.1869 46.8666,1.3934 33.0177,-1.9494 43.8605,-4.3937 76.8784,-6.3429 -4.3243,-25.4491 30.0432,-22.1826 43.316,0.6714 7.2274,-0.3296 11.991,-3.6268 19.2186,-3.9562 5.6673,-7.5012 6.8169,-17.723 5.9132,-29.1825 C 267.5186,72.214 247.4652,72.4383 239.2577,54.2707 219.8108,46.1552 201.2622,36.2368 180.1243,31.5183 154.269,25.4506 135.7395,28.1124 120.4987,30.0346 c 20.0934,12.6847 38.3541,19.5724 55.221,29.0182 -20.0073,-3.1702 -36.2613,-7.5985 -63.1876,-31.4914 18.5386,-3.2716 42.0063,-3.9868 68.4315,-0.6628 23.3398,4.6889 40.9251,15.6486 60.4207,24.1962 9.351,16.2479 24.2031,14.5943 44.6872,35.7129 0.5654,14.2963 -1.4971,26.614 -6.1875,36.9531 -11.2445,0.5382 -12.1408,0.087 -23.3853,0.6252 -14.0659,-22.4228 -44.4199,-28.5419 -38.4307,0.6138 -33.503,1.6037 -47.2949,4.1967 -80.7978,5.8006 -12.0083,-24.4111 -35.1671,-14.0631 -41.8972,1.2507 -12.9042,0.6177 -24.8224,1.73 -37.7265,2.3477 C 39.8897,120.1694 21.8818,106.1935 8.1457,87.9275 8.7242,79.4093 9.7976,71.5533 14.3332,68.331 c 8.139,-5.0618 9.3153,-6.9355 59.382,-17.6869 z"
   inkscape:connector-curvature="0"
   style="fill:#1f1a17;stroke:#1f1a17;stroke-width:0.0762" />
   <path
   id="_131523392"
   class="fil6 str0"
   d="m 97.5159,118.403 c 8.4026,-6.4378 20.9312,-4.2804 27.8898,4.8021 6.9586,9.0824 7.7523,21.2463 -0.6501,27.6839 -8.4024,6.4376 -22.902,4.775 -29.8606,-4.3075 -6.9586,-9.0824 -5.7813,-21.7409 2.6209,-28.1785 z m 18.5476,15.9955 c 2.9854,0 5.4204,2.6556 5.4204,4.6988 0,2.0433 -0.9568,5.1936 -5.4204,5.1936 -4.4636,0 -5.9133,-1.6664 -5.4206,-5.1936 0.4927,-3.5271 2.4352,-4.6988 5.4206,-4.6988 z"
   inkscape:connector-curvature="0"
   style="fill:#1f1a17;stroke:#1f1a17;stroke-width:0.0762" />
   <path
   id="_131523344"
   class="fil6 str0"
   d="m 214.964,109.423 c 8.9469,-6.855 22.2872,-4.5578 29.6967,5.113 7.4095,9.6707 8.1267,24.1387 -0.82,30.9935 -8.9466,6.8547 -24.2583,3.5682 -31.6676,-6.1026 -7.4093,-9.6707 -6.1556,-23.1494 2.7909,-30.0039 z m 23.0621,16.0731 c 4.5494,-2e-4 6.6525,4.7454 6.6525,6.9246 0,2.1792 -3.0886,5.9355 -6.6525,5.4407 -3.5638,-0.4947 -6.1598,-1.7778 -6.6524,-5.9354 -0.4927,-4.1577 2.103,-6.4297 6.6524,-6.4299 z"
   inkscape:connector-curvature="0"
   style="fill:#1f1a17;stroke:#1f1a17;stroke-width:0.0762" />
   <path
   id="_131523296"
   class="fil6 str0"
   d="m 55.3289,106.848 c 3.5063,-0.8759 7.208,1.78 8.2403,5.9125 1.0323,4.1324 -0.9854,8.2171 -4.4917,9.093 -3.5063,0.8759 -7.2079,-1.78 -8.2403,-5.9124 -1.0323,-4.1325 0.9855,-8.2172 4.4917,-9.0931 z m 0.606,1.781 c 2.3374,-0.5839 4.8052,1.1866 5.4935,3.9418 0.6882,2.7548 -0.657,5.4779 -2.9944,6.0618 -2.3376,0.584 -4.8054,-1.1866 -5.4936,-3.9414 -0.6882,-2.7552 0.657,-5.4783 2.9945,-6.0622 z"
   inkscape:connector-curvature="0"
   style="fill:#1f1a17;stroke:#1f1a17;stroke-width:0.0762" />
   <path
   id="_131523248"
   class="fil6 str0"
   d="m 20.0935,79.1083 c 3.1554,-0.7883 6.4867,1.6021 7.4158,5.3209 0.929,3.7189 -0.8868,6.5514 -4.0423,7.3397 -3.1555,0.7883 -6.4868,-0.7584 -7.4158,-4.4773 -0.929,-3.7189 0.8868,-7.3951 4.0423,-8.1833 z m 0.5453,1.6027 c 2.1036,-0.5254 4.3245,0.2246 4.9439,2.704 0.6193,2.4793 -1.0131,5.3516 -3.1166,5.877 -2.1036,0.5255 -3.9028,-0.6459 -4.5222,-3.1253 -0.6193,-2.4793 0.5914,-4.9302 2.6949,-5.4557 z"
   inkscape:connector-curvature="0"
   style="fill:#1f1a17;stroke:#1f1a17;stroke-width:0.0762" />
   <path
   id="_131523176"
   class="fil6 str0"
   d="M 31.8351,87.6814 C 47.756,94.9413 51.4246,101.3327 51.1955,103.7958 38.7461,98.1483 32.9082,92.7899 31.368,89.667 30.7656,88.4451 31.241,88.0657 31.8351,87.6814 Z"
   inkscape:connector-curvature="0"
   style="fill:#1f1a17;stroke:#1f1a17;stroke-width:0.0762" />
   <path
   id="_131523104"
   class="fil7"
   d="M 117.382,84.6713 C 112.9981,80.0748 89.0705,67.0124 71.3563,59.6827 68.1807,59.5344 39.4969,67.8656 26.8486,70.2064 c 5.5698,-4.6068 -3.6912,1.372 -3.4131,-1.1725 17.4729,-8.3759 44.558,-11.877 48.0735,-12.3541 2.4901,-0.9256 44.3568,20.4582 45.873,27.9915 z"
   inkscape:connector-curvature="0"
   style="fill:#e7785f" />
   <path
   id="_131523032"
   class="fil7"
   d="m 217.043,46.4401 c -27.1466,-9.9036 -3.8127,0.7258 -46.8319,-14.1551 -3.1756,-0.1483 -28.1301,-2.2022 -40.7783,0.1386 -1.5063,-0.2041 -1.8043,-0.2003 -1.5262,-1.3296 17.4728,-4.7358 36.7405,-1.2588 42.1429,-0.7111 1.6863,-0.4423 40.5613,11.4725 46.9935,16.0572 z"
   inkscape:connector-curvature="0"
   style="fill:#e7785f" />
   <path
   id="_131522960"
   class="fil6 str0"
   d="m 202.696,91.9287 c -33.7555,-3.0644 -42.2011,-0.2142 -59.1759,3.7314 -1.5063,-0.2042 -0.411,-1.4668 -0.1329,-2.5961 14.6974,-3.7825 43.2298,-7.9296 59.3088,-1.1353 z"
   inkscape:connector-curvature="0"
   style="fill:#1f1a17;stroke:#1f1a17;stroke-width:0.0762" />
   <path
   id="_131522888"
   class="fil6 str0"
   d="m 205.787,126.98 c -32.9588,4.0963 -52.9965,3.9657 -70.414,5.5095 -1.4714,0.3643 -0.6284,1.2596 -0.2305,2.1518 14.981,1.1927 69.1066,-4.6604 70.6445,-7.6613 z"
   inkscape:connector-curvature="0"
   style="fill:#1f1a17;stroke:#1f1a17;stroke-width:0.0762" />
   <path
   id="_131522816"
   class="fil6 str0"
   d="m 110.403,29.2664 c -4.1937,3.4669 -16.2041,8.5797 -33.9166,20.4899 -1.5063,-0.2041 -0.411,-1.4668 -0.1329,-2.5961 6.5422,-5.3987 24.5806,-18.1886 34.0495,-17.8938 z"
   inkscape:connector-curvature="0"
   style="fill:#1f1a17;stroke:#1f1a17;stroke-width:0.0762" />
   <path
   id="_131522744"
   class="fil6 str0"
   d="M 128.705,84.3537 C 125.242,78.7483 83.2842,51.1714 102.171,65.8789 116.7078,77.1987 84.5414,54.5847 83.985,54.2646 c 8.7019,2.9769 40.9328,21.4532 44.72,30.0891 z"
   inkscape:connector-curvature="0"
   style="fill:#1f1a17;stroke:#1f1a17;stroke-width:0.0762" />
   <path
   id="_131522672"
   class="fil6 str0"
   d="m 194.606,99.7454 c -2.2117,0.8473 -2.4211,1.8578 -3.3142,3.933 -0.9752,2.2659 -3.4947,-1.9645 -2.6842,-3.9529 1.1054,-2.712 8.6215,-0.985 5.9984,0.0199 z"
   inkscape:connector-curvature="0"
   style="fill:#1f1a17;stroke:#1f1a17;stroke-width:0.0762" />
   <path
   id="_131522600"
   class="fil7"
   d="m 114.435,109.856 c -11.433,-5.6878 -27.6256,8.0255 -25.6068,14.6049 -1.1819,0.9114 -0.1401,-2.7962 -3.8768,-1.1724 -0.988,-6.4169 20.3263,-23.2956 29.4836,-13.4325 z"
   inkscape:connector-curvature="0"
   style="fill:#e7785f" />
   <path
   id="_131522528"
   class="fil7"
   d="m 233.416,101.821 c -11.433,-5.6877 -28.3982,10.9614 -26.3794,17.5409 -1.1819,0.9114 -2.6124,0.1397 -4.3405,-1.6361 -0.988,-6.4169 21.5626,-25.7678 30.7199,-15.9048 z"
   inkscape:connector-curvature="0"
   style="fill:#e7785f" />
   <path
   id="_131522456"
   class="fil8"
   d="m 187.09,67.0373 c -10.9434,4.2343 -20.7292,9.3367 -26.3794,17.5409 -2.9374,1.9776 -5.7394,3.7253 -4.3405,-1.6361 6.1149,-8.8372 17.6575,-13.0223 30.7199,-15.9048 z"
   inkscape:connector-curvature="0"
   style="fill:#bab3d6" />
   <path
   id="_131522384"
   class="fil8"
   d="m 234.778,61.901 c -9.2779,6.5575 -12.8508,11.786 -17.7141,20.4783 -2.5116,2.4961 -4.9336,4.741 -4.5712,-0.788 4.7692,-8.1081 10.3362,-13.055 22.2853,-19.6903 z"
   inkscape:connector-curvature="0"
   style="fill:#bab3d6" />
   <path
   id="_131522312"
   class="fil8"
   d="m 114.226,37.1251 c 11.6165,10.6722 27.2111,36.5247 19.4837,43.6819 1.5187,3.1884 3.8925,4.6815 5.1993,-0.4143 7.5893,-12.8809 -11.492,-39.1105 -24.683,-43.2676 z"
   inkscape:connector-curvature="0"
   style="fill:#bab3d6" />
   <path
   id="_131522240"
   class="fil7"
   d="m 168.325,94.7769 c -16.5333,-0.1016 -24.0264,26.9914 -15.6929,29.1991 -1.1819,0.9114 -8.6843,1.84 -10.4124,0.0642 -0.6639,-4.3113 -3.0886,-19.3188 0.7116,-25.9245 4.2292,-1.5658 11.3574,-6.5766 25.3937,-3.3388 z"
   inkscape:connector-curvature="0"
   style="fill:#e7785f" />
   <path
   id="_131522168"
   class="fil6 str0"
   d="m 27.8934,93.2461 c 14.6457,8.3033 20.1692,16.5496 19.3604,18.0852 -12.4494,-5.6475 -18.4031,-12.9767 -19.9434,-16.0997 -1.298,-1.9175 1.1483,-0.4419 0.583,-1.9855 z"
   inkscape:connector-curvature="0"
   style="fill:#1f1a17;stroke:#1f1a17;stroke-width:0.0762" />
   <path
   id="_131522024"
   class="fil6 str0"
   d="m 262.792,76.5334 c -16.3471,3.0921 -46.8436,17.1552 -57.688,15.0606 -2.1794,-8.2659 0.2084,-20.1864 1.2291,-26.1595 0.3102,-0.2679 0.9875,0.126 1.7916,-0.7848 0.0562,5.0962 -3.1901,15.1497 -1.0445,24.1654 8.4139,0.3807 54.1036,-16.0612 55.7118,-12.2817 z"
   inkscape:connector-curvature="0"
   style="fill:#1f1a17;stroke:#1f1a17;stroke-width:0.0762" />
  </g>
 </g>
</svg>