<?xml version="1.0" encoding="utf-8"?>
<!-- Generator: Adobe Illustrator 16.0.0, SVG Export Plug-In . SVG Version: 6.00 Build 0)  -->
<!DOCTYPE svg PUBLIC "-//W3C//DTD SVG 1.1//EN" "http://www.w3.org/Graphics/SVG/1.1/DTD/svg11.dtd">
<svg version="1.1" id="Layer_1" xmlns="http://www.w3.org/2000/svg" xmlns:xlink="http://www.w3.org/1999/xlink" x="0px" y="0px"
	 width="500px" height="500px" viewBox="0 0 500 500" enable-background="new 0 0 500 500" xml:space="preserve">
<g>
	<path fill="#F7F0F0" d="M397,313c-9,21,6,36,27,34c18-2,32-16,39-32c9-20,5-43-23-42c-25,1-24,38-47,40"/>
	<g>
		<path d="M394.589,312.335c-3.661,9.021-4.008,19.133,2.158,27.14c5.766,7.486,15.391,10.258,24.49,10.192
			c22.645-0.163,40.394-20.43,46.641-40.62c2.409-7.786,3.001-17.077-0.533-24.624c-3.73-7.967-11.133-12.245-19.631-13.531
			c-8.767-1.327-16.935,0.324-23.625,6.249c-6.026,5.337-9.665,13.055-13.862,19.774c-4.043,6.474-9.155,12.688-17.227,13.585
			c-3.168,0.353-3.202,5.355,0,5c15.867-1.764,21.486-17.205,29.436-28.771c5.075-7.384,11.461-11.343,20.524-11.245
			c9.333,0.102,17.862,4.345,20.812,13.584c2.727,8.542,0.03,18.104-3.513,25.963c-4.721,10.469-12.557,19.501-22.606,25.107
			c-9.564,5.336-22.015,6.413-31.706,0.883c-10.139-5.785-10.486-17.624-6.535-27.356
			C400.624,310.676,395.785,309.389,394.589,312.335L394.589,312.335z"/>
	</g>
</g>
<g>
	<path fill="#D9ABCF" d="M441.541,287.442c2.459,7.377,4.918,18.853-1.64,25.41c-4.918,5.737-19.672,6.558-24.59,0.819"/>
	<g>
		<path d="M439.13,288.107c2.517,7.775,4.612,17.142-1.661,23.669c-4.49,4.672-15.956,4.687-20.39,0.128
			c-2.251-2.314-5.783,1.224-3.535,3.535c6.412,6.593,19.054,5.87,26.196,0.902c9.506-6.61,7.24-20.207,4.212-29.564
			C442.963,283.724,438.135,285.03,439.13,288.107L439.13,288.107z"/>
	</g>
</g>
<g>
	<path fill="#1D1D1D" d="M218,205c-12-15,11-54,22-65c13-14,29-19,48-17c25,4,23,22,14,41c-11,25-35,33-50,53"/>
	<g>
		<path d="M220.159,203.738c-4.938-6.597-2.955-15.62-0.79-22.899c2.838-9.543,7.676-18.537,13.024-26.89
			c4.85-7.575,10.661-14.503,17.98-19.813c10.058-7.295,22.291-9.573,34.488-8.905c9.587,0.525,19.873,4.824,20.757,15.494
			c0.811,9.776-4.5,20.623-9.291,28.778c-11.253,19.157-33.11,28.801-46.486,46.234c-1.963,2.559,2.383,5.044,4.317,2.523
			c14.413-18.785,37.437-28.601,48.675-50.189c7.396-14.208,14.363-36.826-4.892-44.88c-21.444-8.971-46.344,0.294-61.231,16.655
			c-5.914,6.499-10.608,14.253-14.706,21.982c-4.453,8.399-8.396,17.673-9.549,27.179c-0.723,5.961-0.333,12.287,3.385,17.254
			C217.749,208.811,222.093,206.322,220.159,203.738L220.159,203.738z"/>
	</g>
</g>
<g>
	<path fill="#F7F0F0" d="M263,202c-14-4-23-8-38-10c-8-1-17,0-25,0c-17,1-39,6-51,17c-22,18-27,52-27,78s-1,53,14,76
		c15,27,45,49,74,57c21,7,43-4,59-17c24-18,38-41,51-67c16-31,7-61-8-91c-4-9-9-22-15-29C287,206,275,207,263,202"/>
	<g>
		<path d="M263.665,199.589c-12.773-3.702-25.347-8.666-38.665-10.089c-13.133-1.403-27.241-0.415-40.248,1.816
			c-11.886,2.039-24.03,5.873-33.906,12.967c-9.037,6.493-15.81,15.514-20.585,25.475c-10.282,21.447-10.815,45.622-10.771,68.91
			c0.025,13.53,0.596,27.092,3.672,40.314c3.024,12.999,9.574,24.862,17.319,35.625c14.801,20.569,36.672,36.196,60.283,45.046
			c12.427,4.657,24.376,6.358,37.352,2.977c12.757-3.323,23.727-10.88,33.975-18.866c20.729-16.154,35.167-37.672,47.159-60.773
			c6.631-12.774,11.282-25.457,11.694-39.989c0.406-14.314-3.598-28.49-8.812-41.677c-3.071-7.77-6.951-15.167-10.255-22.831
			c-3.039-7.051-6.094-14.144-10.32-20.582C292.973,204.835,276.861,204.824,263.665,199.589c-3.001-1.19-4.29,3.647-1.33,4.821
			c12.599,4.998,27.511,4.762,35.68,17.204c3.39,5.163,5.862,10.955,8.331,16.594c2.931,6.696,6.131,13.256,9.081,19.943
			c6.245,14.154,10.607,29.284,10.518,44.849c-0.092,15.808-6.683,29.466-13.976,43.09c-12.894,24.086-29.39,44.932-52.016,60.551
			c-11.803,8.147-25.674,13.864-40.215,12.87c-13.16-0.899-26.973-7.979-38.129-14.542c-23.483-13.815-44.15-36.18-52.332-62.53
			c-4.211-13.562-4.675-28.011-4.779-42.1c-0.093-12.413-0.133-24.838,1.528-37.164c3.237-24.015,13.074-48.296,35.862-59.66
			c11.639-5.804,25.246-8.183,38.113-9.015c15.037-0.973,29.217-0.094,43.71,4.161c6.235,1.83,12.382,3.941,18.625,5.75
			C265.439,205.31,266.755,200.485,263.665,199.589L263.665,199.589z"/>
	</g>
</g>
<g>
	<path fill="#3F2E2E" d="M83,178c2,6,0,12,1,18c1,10,2,9,13,6c13-3,26-5,39-7c25-4,50-7,76-9c52-5,104-9,155-16c26-3,53-3,78-8
		c16-3,13-10,10-25c-3-18-15-11-29-9c-58,9-115,15-173,23c-41,5-79,8-121,8c-15,0-32,0-46,4c-10,3-9,5-8,15c1,8,1,17,4,24"/>
	<g>
		<path d="M80.589,178.665c1.775,6.561,0.29,13.627,1.268,20.365c0.398,2.743,1.038,6.104,4.007,7.165
			c2.897,1.036,6.352-0.284,9.151-1.053c7.57-2.08,15.348-3.428,23.078-4.766c31.824-5.509,63.756-8.984,95.881-12.065
			c32.818-3.147,65.672-5.916,98.465-9.32c16.273-1.689,32.526-3.565,48.746-5.706c15.633-2.063,31.351-2.966,47.063-4.179
			c13.895-1.073,29.074-1.701,42.43-5.969c7.493-2.394,9.871-8.182,8.891-15.567c-1.026-7.73-1.832-19.238-9.285-23.635
			c-6.725-3.966-16.82,0.282-23.754,1.472c-32.362,5.555-65.119,9.225-97.69,13.308c-32.243,4.042-64.441,8.712-96.75,12.182
			c-19.257,2.067-38.567,3.622-57.911,4.581c-19.222,0.953-38.433,0.687-57.66,1.171c-8.31,0.209-16.604,0.885-24.78,2.414
			c-4.693,0.877-12.441,2.048-15.4,6.472c-2.413,3.605-1.25,8.46-0.838,12.466c0.849,8.243,1.021,16.868,4.089,24.665
			c1.167,2.964,6.003,1.675,4.821-1.329c-2.531-6.43-2.911-13.278-3.555-20.089c-0.291-3.084-2.524-10.487-0.163-13.169
			c3.107-3.531,11.427-4.063,15.694-4.784c7.782-1.315,15.754-1.568,23.629-1.723c31.218-0.614,62.211-1.056,93.345-3.829
			c32.143-2.864,64.075-7.576,96.085-11.597c31.939-4.013,63.89-7.942,95.754-12.524c7.56-1.087,15.109-2.236,22.658-3.392
			c4.855-0.743,9.585-2.256,14.487-2.692c4.756-0.423,7.682,1.544,9.277,6.033c1.724,4.847,2.639,10.79,3.172,15.913
			c0.405,3.883-0.546,6.485-4.101,8.303c-6.279,3.21-15.148,3.437-22.013,4.32c-15.509,1.995-31.159,2.7-46.737,3.953
			c-16.059,1.292-31.998,3.741-47.998,5.585c-16.309,1.88-32.645,3.517-48.986,5.08c-32.663,3.124-65.391,5.682-98.028,9.045
			c-23.49,2.42-46.889,5.839-70.168,9.787c-5.594,0.949-11.166,2.02-16.714,3.204c-3.903,0.833-7.969,2.571-11.968,2.806
			c-1.617,0.094-1.675-6.336-1.798-7.364c-0.688-5.711,0.664-11.186-0.873-16.865C84.569,174.227,79.746,175.547,80.589,178.665
			L80.589,178.665z"/>
	</g>
</g>
<g>
	<path fill="#1D1D1D" d="M207,361c10-16,24-34,42-40c22-7,40,10,32,32c-5,16-32,44-50,46c-18,1-31-24-23-39"/>
	<g>
		<path d="M209.159,362.262c10.788-17.137,26.948-39.562,49.333-40.355c9.296-0.329,17.841,5.111,20.907,13.932
			c2.937,8.443-0.497,17.61-4.845,24.885c-8.626,14.438-23.959,30.18-40.443,35.113c-17.814,5.332-31.043-20.302-23.952-34.574
			c1.43-2.878-2.882-5.411-4.317-2.523c-7.888,15.876,2.484,38.6,20.017,42.385c8.72,1.883,17.598-3.254,24.511-7.976
			c8.922-6.095,16.738-13.951,23.339-22.47c10.556-13.623,18.884-36.148,1.686-48.54c-20.044-14.442-43.708,3.21-56.848,18.542
			c-5.094,5.944-9.54,12.442-13.705,19.059C203.118,362.476,207.446,364.982,209.159,362.262L209.159,362.262z"/>
	</g>
</g>
<g>
	<path fill="#1D1D1D" d="M153,267c12-19,29-53,56-51c29,2,36,27,22,49c-11,17-35,29-54,32c-7,1-20,1-26-4c-9-9-1-23,5-31"/>
	<g>
		<path d="M155.159,268.262c10.125-16.116,19.375-35.084,36.145-45.354c17.278-10.583,43.915-1.688,44.16,20.42
			c0.266,24.012-24.629,40.33-44.561,47.506c-10.402,3.746-21.803,5.65-32.684,2.91c-15.888-4.003-6.174-22.188-0.06-30.482
			c1.916-2.6-2.426-5.089-4.317-2.523c-5.622,7.626-12.502,19.135-8.092,28.864c4.541,10.019,17.035,10.749,26.688,10.332
			c21.196-0.914,45.581-13.398,58.354-30.341c10.799-14.324,14.801-36.599-1.024-49.001c-7.372-5.777-18.199-8.182-27.397-6.86
			c-9.627,1.383-17.661,6.813-24.483,13.498c-11.256,11.031-18.744,25.294-27.045,38.508
			C149.121,268.478,153.448,270.984,155.159,268.262L155.159,268.262z"/>
	</g>
</g>
<g>
	<path fill="#F7F0F0" d="M347,151c-21-15,1-28,18-28c10,0,20,1,30,4c13,5,18,28,1,34c-16,7-32-18-50-13"/>
	<g>
		<path d="M348.262,148.841c-6.588-4.94-10.366-11.651-2.699-17.483c5.984-4.552,13.998-5.893,21.313-5.847
			c14.108,0.09,35.53,0.642,37.421,18.61c0.623,5.914-2.156,10.971-7.327,13.775c-6.154,3.337-12.377,1.334-18.202-1.611
			c-10.582-5.352-20.83-13.764-33.432-10.697c-3.132,0.762-1.803,5.584,1.33,4.821c16.312-3.97,28.168,14.674,44.227,14.312
			c15.766-0.356,21.727-16.915,15.938-29.584c-3.626-7.936-10.644-10.696-18.664-12.439c-10.548-2.292-22.351-3.378-32.957-0.974
			c-7.075,1.604-15.34,5.544-18.382,12.563c-3.394,7.827,3.147,14.549,8.912,18.872C348.32,155.095,350.809,150.751,348.262,148.841
			L348.262,148.841z"/>
	</g>
</g>
<g>
	<path fill="#F7F0F0" d="M269.946,184c6-11,24-19,34-25c12-7,24-13,37-15c20-2,46,0,62,11c24,15,43,29,48,59c3,24,0,56-12,78
		c-12,24-41,34-66,40c-24,6-37-1-58-14c-14-9-18-13-20-30c-2-12-5-25-8-37c-5-21-24-49-15-70"/>
	<g>
		<path d="M272.105,185.262c5.912-10.126,18.021-15.679,27.905-21.14c12.368-6.833,24.259-14.006,38.23-17.101
			c12.596-2.79,27.332-1.481,39.864,0.94c12.572,2.429,22.694,8.392,33.201,15.392c9.498,6.327,18.599,13.519,25.489,22.707
			c7.324,9.768,11.183,21.537,12.234,33.612c2.211,25.363-1.259,54-15.013,75.916c-12.191,19.423-36.742,27.619-57.759,33.02
			c-11.771,3.024-22.974,4.282-34.716,0.493c-11.325-3.655-22.242-10.775-31.856-17.655c-7.575-5.423-10.563-12.21-11.954-21.241
			c-2.134-13.862-5.293-27.506-8.686-41.112c-5.279-21.177-23.675-44.971-14.689-67.428c1.198-2.996-3.64-4.284-4.822-1.329
			c-8.978,22.438,7.566,46.66,13.981,67.553c4.171,13.586,7.259,28.171,9.201,42.242c1.218,8.826,3.695,16.489,10.499,22.535
			c8.562,7.607,19.617,13.624,29.938,18.433c10.124,4.717,21.044,6.582,32.132,4.939c22.267-3.298,46.94-11.637,63.819-26.972
			c17.897-16.26,23.465-43.371,25.079-66.433c1.64-23.437-1.622-46.369-17.488-64.576c-7.141-8.194-16.188-14.633-25.211-20.575
			c-10.193-6.711-20.006-11.819-32.052-14.344c-12.13-2.542-24.77-2.808-37.083-1.772c-13.567,1.14-26.489,7.935-38.102,14.567
			c-12.582,7.186-28.837,13.745-36.463,26.804C266.158,185.528,270.48,188.044,272.105,185.262L272.105,185.262z"/>
	</g>
</g>
<g>
	<path fill="#EA9BC3" d="M345.856,238.743c-1.519-5.981-9.026-4.747-11.304-0.56c-0.759,1.794-2.277,10.766-0.759,11.364
		c-0.759,0,7.592,1.196,7.592,1.196c3.796,0.599,4.555,2.991,8.351,0.599C355.81,247.753,347.375,243.528,345.856,238.743"/>
	<g>
		<path d="M348.268,238.079c-2.163-6.919-10.876-7.759-15.168-2.18c-1.768,2.297-1.943,5.637-2.28,8.415
			c-0.304,2.508-0.616,5.762,1.713,7.392c0.199-1.522,0.398-3.046,0.597-4.569c-0.016,0.003-0.031,0.006-0.047,0.009
			c-2.597,0.472-2.169,4.112,0,4.821c2.104,0.688,4.591,0.746,6.776,1.063c3.088,0.448,5.538,2.251,8.736,1.593
			c3.117-0.641,6.617-3.977,5.67-7.396C353.244,243.542,349.584,241.551,348.268,238.079c-1.133-2.984-5.968-1.691-4.822,1.329
			c0.951,2.507,2.603,4.436,4.319,6.458c0.552,0.65,1.549,1.638,1.644,2.539c0.047,0.455-2.042,1.357-2.143,1.396
			c-0.674,0.266-1.479-0.207-2.066-0.46c-3.469-1.495-7.265-1.043-10.788-2.196c0,1.607,0,3.214,0,4.821
			c0.016-0.003,0.031-0.005,0.048-0.008c2.327-0.424,2.188-3.456,0.597-4.57c0.919,0.643,0.667,1.248,0.597,0.116
			c-0.052-0.831,0.03-1.675,0.097-2.503c0.137-1.704,0.464-3.401,0.871-5.059c0.787-3.207,5.774-3.9,6.825-0.535
			C344.404,242.475,349.231,241.165,348.268,238.079L348.268,238.079z"/>
	</g>
</g>
<g>
	<path fill="#1E1E1E" d="M381,175c-11,4-28-3-41,2c-14,5-23,18-16,32c9,19,28,15,42,5C376,206,401,187,381,175"/>
	<g>
		<path d="M380.335,172.589c-10.003,3.228-21.231-0.359-31.525,0.123c-9.244,0.433-18.302,4.854-24.273,11.912
			c-11.228,13.269-3.272,34.969,13.013,39.533c15.21,4.263,30.015-7.451,40.453-16.952c5.337-4.858,10.758-10.719,12.631-17.874
			c1.874-7.157-2.657-12.852-8.371-16.49c-2.729-1.737-5.234,2.591-2.523,4.317c13.73,8.743,0.376,21.627-7.846,28.804
			c-9.14,7.979-21.253,16.668-34.069,13.077c-7.16-2.007-11.69-9.454-13.386-16.235c-2.118-8.474,3.582-16.134,10.292-20.512
			c14.678-9.578,31.451,0.114,46.936-4.882C384.72,176.425,383.413,171.596,380.335,172.589L380.335,172.589z"/>
	</g>
</g>
<g>
	<path fill="#1E1E1E" d="M412.288,250c-19-3-69-4-48,31c10,18,25,7,38-2C413.288,271,431.288,260,412.288,250"/>
	<g>
		<path d="M412.953,247.589c-17.585-2.708-64.199-4.327-55.011,25.739c2.431,7.953,7.698,16.821,16.049,19.345
			c8.35,2.522,17.456-3.378,24.045-7.731c7.537-4.98,17.064-10.447,22.332-17.976c5.69-8.134,0.857-14.822-6.818-19.125
			c-2.815-1.578-5.336,2.741-2.523,4.317c3.501,1.963,8.009,4.565,6.77,9.217c-0.95,3.565-4.912,6.499-7.606,8.724
			c-5.953,4.915-12.581,9.385-19.179,13.384c-6.304,3.819-14.179,7.157-20.518,1.654c-4.896-4.249-8.764-12.784-8.756-19.31
			c0.012-9.771,12.337-12.672,19.885-13.854c9.787-1.533,20.235-1.067,30.001,0.438
			C414.776,252.896,416.132,248.079,412.953,247.589L412.953,247.589z"/>
	</g>
</g>
<g>
	<path fill="#FFFFFF" d="M357.667,194.333c-9.063-8.333-32,6.333-16.667,18.333c11.667,9,26.667-14,16.334-18.667"/>
	<g>
		<path d="M359.435,192.566c-6.354-5.404-15.365-3.164-21.284,1.769c-7.091,5.909-5.509,15.385,1.588,20.491
			c13.643,9.814,32.93-15.881,18.857-22.984c-2.87-1.449-5.402,2.864-2.523,4.317c7.67,3.872-4.932,19.911-13.183,14.801
			c-12.247-7.584,4.635-21.981,13.01-14.858C358.34,198.177,361.895,194.658,359.435,192.566L359.435,192.566z"/>
	</g>
</g>
<g>
	<path fill="#2B1F12" d="M349.334,201.667c-4.334-5-11.667,5.333-5.667,8.333c6,3.333,9.667-9,3.333-9.667"/>
	<g>
		<path d="M351.102,199.899c-7.252-7.755-18.155,8.28-8.04,12.567c9.179,3.89,14.024-13.196,4.604-14.543
			c-1.349-0.193-2.681,0.309-3.076,1.746c-0.326,1.187,0.396,2.882,1.746,3.075c1.535,0.22,1.713,1.038,1.382,2.64
			c-0.173,0.834-0.555,1.624-1.084,2.191c-0.472,0.506-0.762,0.57-1.324,0.429c-1.77-0.443-1.587-2.032-0.889-3.332
			c0.847-1.576,2.072-2.387,3.146-1.239C349.772,205.794,353.301,202.25,351.102,199.899L351.102,199.899z"/>
	</g>
</g>
<g>
	<path fill="#FFFFFF" d="M385,260c-8.19-1.761-14,4.666-14.333,10.333c-0.333,7.667,7.001,12.756,12.668,11.089
		c4.667-1,12.999-8.756,12.665-14.422c-0.333-9-11-8.667-17.333-6.334"/>
	<g>
		<path d="M385.665,257.589c-9.077-1.423-17.646,4.476-17.473,14.15c0.154,8.659,9.669,14.627,17.481,11.521
			c7.296-2.899,14.195-11.143,12.373-19.249c-1.944-8.65-13.747-7.91-20.045-5.757c-3.032,1.037-1.729,5.868,1.33,4.822
			c3.851-1.317,8.442-2.167,12.172-0.079c5.623,3.148-0.884,10.506-3.555,12.944c-4.228,3.86-9.847,4.545-13.475-0.566
			c-4.845-6.826,3.08-14.028,9.86-12.965C387.488,262.905,388.843,258.088,385.665,257.589L385.665,257.589z"/>
	</g>
</g>
<g>
	<path fill="#2B1F12" d="M384.334,268.333C382,264,369.667,273.666,379.667,276c2.333,0.666,5-0.334,5.667-3
		C385.667,269.666,386.668,269,384.334,268.333"/>
	<g>
		<path d="M386.492,267.071c-3.703-6.246-14.975,1.095-12.941,7.205c1.437,4.316,8.185,5.609,11.61,3.15
			c2.279-1.636,2.639-4.07,3.048-6.653c0.398-2.521-0.813-4.112-3.21-4.852c-3.09-0.952-4.401,3.875-1.33,4.822
			c0.349,0.128,0.429,0.146,0.242,0.057c-0.366-0.166-0.556-0.752-0.577-1.135c0.035,0.636,0.107-0.486-0.039,0.317
			c-0.062,0.341-0.129,0.682-0.19,1.022c-0.222,1.24-0.144,2.245-1.504,2.642c-0.895,0.26-2.176-0.241-2.87-0.608
			c-0.153-0.086-0.302-0.18-0.444-0.282c0.432,0.291-0.288-0.42,0.105,0.109c-0.105-0.142-0.266-0.659-0.079-0.097
			c-0.189-0.572,0.005,0.533-0.002-0.068c0.02-0.283,0.014-0.249-0.017,0.102c0.021-0.106,0.244-0.7,0.009-0.158
			c0.093-0.212,0.687-1.072,0.447-0.778c0.643-0.788,1.055-1.063,1.681-1.453c0.137-0.085,1.085-0.547,0.662-0.374
			c0.206-0.084,1.389-0.366,0.781-0.285c0.191-0.025,0.386-0.024,0.578-0.021c-0.609-0.01-0.159-0.024,0.041,0.031
			c-0.642-0.179,0.134,0.181-0.367-0.228c0.429,0.35-0.251-0.448,0.05,0.059C383.817,272.365,388.141,269.852,386.492,267.071
			L386.492,267.071z"/>
	</g>
</g>
<g>
	<path fill="#ED1F24" d="M325.967,268.59c6.558,6.558,13.115,13.935,22.951,7.377c-4.099,3.279-10.655,15.574-17.213,16.394
		c-13.115,0.82-5.738-15.573-2.459-20.491"/>
	<g>
		<path d="M324.199,270.357c7.527,7.558,15.403,14.189,25.98,7.768c-1.01-1.309-2.02-2.617-3.029-3.926
			c-5.095,4.448-10.431,17.528-18.599,15.372c-5.479-1.446,1.23-13.931,2.853-16.44c1.757-2.717-2.573-5.221-4.316-2.523
			c-3.539,5.473-9.123,17.32-2.354,22.479c10.96,8.354,19.604-9.811,25.951-15.353c2.166-1.891-0.632-5.382-3.029-3.926
			c-8.413,5.107-14.164-1.206-19.922-6.986C325.457,264.535,321.922,268.071,324.199,270.357L324.199,270.357z"/>
	</g>
</g>
<g>
	<path fill="#ED9AA0" d="M273.508,115.312c-9.016,0.82-31.967,18.033-13.114,22.131c11.476,2.459,27.869-22.951,13.935-22.131"/>
	<g>
		<path d="M273.508,112.812c-7.623,0.943-15.991,6.383-20.431,12.589c-5.102,7.132-0.395,14.012,7.983,14.653
			c8.074,0.618,15.125-6.759,18.805-13.172c3.46-6.032,3.156-14.28-5.537-14.07c-3.219,0.078-3.227,5.078,0,5
			c5.474-0.132,1.609,6.089-0.049,8.603c-2.659,4.034-7.403,8.65-12.542,8.691c-1.63,0.013-5.793-1.074-6.063-3.143
			c-0.292-2.244,2.061-4.518,3.459-5.945c3.541-3.614,9.209-7.567,14.374-8.206C276.664,117.421,276.702,112.416,273.508,112.812
			L273.508,112.812z"/>
	</g>
</g>
<g>
	<path fill="#ED9AA0" d="M289.901,123.508c-15.573-6.558-30.327,21.312-11.476,18.853c11.476-1.64,22.132-26.229,5.738-23.771"/>
	<g>
		<path d="M290.566,121.098c-8.271-3.152-16.535,1.389-21.089,8.392c-3.845,5.913-3.104,14.757,5.299,15.445
			c8.876,0.727,15.933-6.341,18.946-14.169c3.077-7.995,0.008-15.819-9.559-14.675c-3.16,0.378-3.197,5.382,0,5
			c6.893-0.824,6.688,4.247,4.286,9.301c-2.445,5.149-6.886,9.688-12.86,9.61c-5.862-0.077-2.933-6.677-0.841-9.371
			c3.519-4.531,8.997-6.803,14.487-4.711C292.255,127.069,293.548,122.234,290.566,121.098L290.566,121.098z"/>
	</g>
</g>
<g>
	<path fill="#ED9AA0" d="M303.836,127.606c-3.278-9.016-24.59,4.099-18.853,13.115c6.558,10.656,24.591-7.377,16.394-15.574"/>
	<g>
		<path d="M305.994,126.345c-5.262-12.424-30.962,4.029-22.771,16.232c8.603,12.816,30.189-7.998,19.921-19.197
			c-2.184-2.381-5.71,1.164-3.535,3.535c5.568,6.073-7.689,19.662-12.467,12.544c-4.112-6.126,11.954-16.684,14.535-10.591
			C302.932,131.829,307.236,129.277,305.994,126.345L305.994,126.345z"/>
	</g>
</g>
<g>
	<path fill="#ED9AA0" d="M296.459,250.558c-1.64-5.738-7.377-13.115-13.115-15.574c-6.557-2.459-17.213-2.459-16.393,6.558
		c0,7.377,10.655,13.935,18.032,13.935c6.558,0,14.754-9.836,4.099-12.295"/>
	<g>
		<path d="M298.87,249.893c-3.253-9.958-11.208-17.765-21.787-18.762c-9.788-0.923-15.347,7.106-11.123,15.954
			c3.523,7.382,16.201,13.669,23.901,9.677c7.797-4.041,9.485-13.27-0.114-15.992c-3.108-0.881-4.427,3.943-1.33,4.821
			c7.284,2.065-0.398,7.515-4.563,7.336c-5.703-0.244-13.964-5.217-14.402-11.386c-0.456-6.419,6.919-5.833,11.257-4.777
			c6.375,1.552,11.405,8.535,13.34,14.458C295.045,254.273,299.874,252.967,298.87,249.893L298.87,249.893z"/>
	</g>
</g>
<g>
	<path fill="#ED9AA0" d="M273.508,255.476c-0.819-9.836-22.95-18.033-18.032-3.279c3.278,12.296,28.688,12.296,20.491,2.459"/>
	<g>
		<path d="M276.008,255.476c-0.902-7.089-7.773-12.345-14.511-13.612c-8.317-1.564-10.536,5.735-7.959,12.362
			c2.739,7.041,11.348,10.286,18.404,9.996c6.972-0.286,10.263-5.627,5.792-11.334c-1.987-2.537-5.499,1.028-3.535,3.535
			c2.514,3.209-2.772,2.903-4.843,2.755c-4.345-0.311-9.589-2.663-11.257-6.95c-0.53-1.363-1.541-4.049-0.313-5.287
			c0.869-0.877,3.259-0.092,4.196,0.176c3.596,1.027,8.509,4.311,9.024,8.359C271.409,258.629,276.414,258.668,276.008,255.476
			L276.008,255.476z"/>
	</g>
</g>
<g>
	<path fill="#ED9AA0" d="M256.295,255.476c-4.918-10.656-29.508,8.196-8.197,15.573c17.213,5.738,15.574-15.573,2.459-20.491"/>
	<g>
		<path d="M258.453,254.214c-6.833-13.185-32.637,6.678-15.448,17.285c6.583,4.063,17.991,4.941,19.965-4.542
			c1.699-8.156-4.608-15.911-11.748-18.81c-2.989-1.214-4.276,3.625-1.33,4.822c4.633,1.881,8.126,6.476,8.309,11.521
			c0.228,6.257-6.484,5.239-10.519,3.749c-14.32-5.287,3.298-17.59,6.454-11.502C255.62,259.601,259.935,257.072,258.453,254.214
			L258.453,254.214z"/>
	</g>
</g>
<g>
	<path fill="#ED9AA0" d="M209.574,214.492c-5.738-5.738-33.606,15.574-15.574,21.312c10.656,3.279,32.787-21.312,16.394-22.131"/>
	<g>
		<path d="M211.341,212.724c-6.013-5.215-15.854,2.167-20.236,6.352c-5.768,5.509-8.534,14.767,0.578,18.514
			c8.689,3.572,18.095-3.974,23.157-10.473c5.071-6.511,5.582-15.159-4.446-15.945c-3.217-0.252-3.192,4.75,0,5
			c6.684,0.523,1.273,7.2-1.162,9.855c-3.551,3.873-9.822,9.011-15.431,7.065c-6.347-2.202-1.64-8.112,1.393-11.009
			c1.762-1.683,9.825-8.242,12.613-5.825C210.229,218.361,213.782,214.84,211.341,212.724L211.341,212.724z"/>
	</g>
</g>
<g>
	<path fill="#ED9AA0" d="M228.426,225.967c-3.279-11.476-33.606,9.016-19.672,15.574c12.295,6.557,27.049-23.771,12.295-22.951"/>
	<g>
		<path d="M230.837,225.303c-5.459-16.052-38.557,7.413-25.112,17.314c8.249,6.075,16.944-1.119,21.104-8.428
			c3.806-6.688,4.807-18.301-5.779-18.099c-3.22,0.062-3.226,5.062,0,5c6.093-0.116,3.167,7.347,1.462,10.576
			c-2.434,4.611-7.557,10.254-13.156,7.377c-7.918-4.069,14.225-19.571,16.66-12.411
			C227.048,229.667,231.878,228.364,230.837,225.303L230.837,225.303z"/>
	</g>
</g>
<g>
	<path fill="#ED9AA0" d="M236.623,233.344c-6.558-6.557-29.508,11.476-21.312,16.394c9.836,6.557,28.688-14.754,15.574-20.492"/>
	<g>
		<path d="M238.391,231.577c-9.867-8.749-35.54,12.712-24.78,20.022c13.121,8.913,34.493-16.8,18.536-24.511
			c-2.889-1.396-5.426,2.915-2.523,4.317c9.604,4.641-5.319,20.822-13.05,16.174c-2.722-1.636,4.663-7.833,5.769-8.672
			c2.491-1.888,9.365-6.586,12.513-3.795C237.258,237.243,240.808,233.72,238.391,231.577L238.391,231.577z"/>
	</g>
</g>
<g>
	<path fill="#ED9AA0" d="M232.524,248.098c-7.377-2.459-24.59,11.476-12.295,15.574c8.197,2.459,21.312-10.655,15.574-18.852"/>
	<g>
		<path d="M233.189,245.688c-7.982-2.208-26.959,10.219-17.334,18.444c10.794,9.226,29.271-9.18,22.107-20.574
			c-1.711-2.722-6.039-0.215-4.317,2.523c4.42,7.031-7.175,18.433-14.23,14.489c-2.921-1.633,1.337-5.426,2.667-6.571
			c2.394-2.06,6.514-4.393,9.778-3.49C234.973,251.37,236.292,246.546,233.189,245.688L233.189,245.688z"/>
	</g>
</g>
<g>
	<path fill="#ED9AA0" d="M254.655,317.771c-9.016-3.278-24.59,18.033-11.475,19.672c9.016,0.82,22.951-16.394,13.935-21.312"/>
	<g>
		<path d="M255.32,315.359c-10.175-3.07-27.548,16.252-16.149,23.423c11.412,7.179,32.261-16.719,19.206-24.81
			c-2.749-1.704-5.258,2.622-2.523,4.316c6.771,4.197-7.601,19.312-14.158,16.176c-5.267-2.518,6.869-15.922,12.295-14.283
			C257.086,321.115,258.398,316.289,255.32,315.359L255.32,315.359z"/>
	</g>
</g>
<g>
	<path fill="#ED9AA0" d="M271.049,326.787c-5.737-6.558-31.967,9.836-18.032,15.573c10.655,4.918,26.229-18.853,13.114-19.672"/>
	<g>
		<path d="M272.816,325.02c-9.156-9.297-36.051,10.405-22.343,18.881c7.543,4.663,15.677-1.59,19.975-7.667
			c4.274-6.046,4.812-15.153-4.317-16.045c-3.209-0.313-3.179,4.689,0,5c5.069,0.495,1.166,6.871-0.414,9.106
			c-2.782,3.936-7.893,7.818-12.72,5.288c-4.392-2.304,2.354-7.135,4.376-8.441c2.444-1.58,9.192-5.344,11.908-2.587
			C271.546,330.854,275.08,327.317,272.816,325.02L272.816,325.02z"/>
	</g>
</g>
<g>
	<path fill="#ED9AA0" d="M280.065,334.164c-4.099-6.558-25.41,4.099-22.131,11.476c4.099,9.836,27.049-7.377,18.853-13.935"/>
	<g>
		<path d="M282.225,332.902c-7.46-10.158-34.229,4.901-25.104,16.017c7.651,9.32,31.694-9.804,21.435-18.981
			c-2.395-2.143-5.943,1.381-3.535,3.535c5.098,4.561-9.171,13.684-13.655,12.426c-4.57-1.282,3.078-7.266,4.194-7.979
			c2.14-1.365,10.108-5.545,12.348-2.494C279.794,337.995,284.136,335.506,282.225,332.902L282.225,332.902z"/>
	</g>
</g>
<g>
	<path fill="#ED9AA0" d="M283.344,341.541c-7.377-4.918-24.59,13.935-13.114,19.672c9.017,4.918,25.41-12.295,15.574-20.491"/>
	<g>
		<path d="M284.605,339.383c-10.887-6.346-28.639,15.3-16.95,23.188c12.48,8.422,31.755-12.866,19.916-23.616
			c-2.381-2.162-5.927,1.363-3.535,3.535c7.32,6.648-5.475,20.474-13.238,16.182c-6.758-3.736,5.52-18.331,11.284-14.972
			C284.873,345.326,287.389,341.005,284.605,339.383L284.605,339.383z"/>
	</g>
</g>
<g>
	<path fill="#D9ABCF" d="M357.935,139.902c7.377-9.836,22.131-4.918,24.59,5.737"/>
	<g>
		<path d="M359.702,141.669c6.258-7.636,17.807-4.783,20.411,4.634c0.859,3.104,5.683,1.784,4.822-1.329
			c-3.53-12.76-20.071-17.454-28.769-6.84C354.142,140.606,357.657,144.166,359.702,141.669L359.702,141.669z"/>
	</g>
</g>
<g>
	<path fill="#1D1D1D" d="M306,319c8-17,10-36,4-55c-7-22-28-25-48-18s-28,28-10,42c9,7,19,9,27,18c8,8,15,20,28,11"/>
	<g>
		<path d="M308.158,320.262c5.499-12.02,8.289-24.704,7.718-37.941c-0.496-11.495-3.387-24.047-11.326-32.734
			c-13.095-14.326-39.063-11.02-53.446-0.664c-7.106,5.116-11.854,13.175-11.599,22.038c0.296,10.271,8.314,17.742,16.464,22.737
			c5.181,3.175,10.754,5.577,15.756,9.062c4.818,3.356,8.491,8.322,12.537,12.523c7.027,7.295,15.136,9.587,24,3.876
			c2.7-1.739,0.196-6.068-2.523-4.316c-9.249,5.958-15.218-0.018-21.458-6.872c-6.104-6.705-12.454-11.412-20.463-15.642
			c-8.072-4.263-16.405-9.322-18.914-18.693c-2.247-8.394,3.276-16.474,9.78-21.156c12.719-9.158,34.683-11.005,46.33,0.643
			c7.295,7.295,9.193,19.401,9.862,29.199c0.832,12.186-1.984,24.378-7.034,35.418C302.511,320.647,306.818,323.19,308.158,320.262
			L308.158,320.262z"/>
	</g>
</g>
<g>
	<g>
		<path fill="#FFFFFF" d="M349.5,211c3.225,0,3.225-5,0-5S346.275,211,349.5,211L349.5,211z"/>
	</g>
</g>
<g>
	<g>
		<path fill="#FFFFFF" d="M384,276.5c3.225,0,3.225-5,0-5S380.775,276.5,384,276.5L384,276.5z"/>
	</g>
</g>
<g>
	<g>
		<path fill="#FFFFFF" d="M347,202.25c1.612,0,1.612-2.5,0-2.5S345.388,202.25,347,202.25L347,202.25z"/>
	</g>
</g>
<g>
	<g>
		<path fill="#FFFFFF" d="M381.5,267.25c1.612,0,1.612-2.5,0-2.5S379.888,267.25,381.5,267.25L381.5,267.25z"/>
	</g>
</g>
<g>
	<g>
		<path fill="#FFFFFF" d="M383,267.25c1.612,0,1.612-2.5,0-2.5S381.388,267.25,383,267.25L383,267.25z"/>
	</g>
</g>
<g>
	<g>
		<path fill="#FFFFFF" d="M346.5,201.25c1.612,0,1.612-2.5,0-2.5S344.888,201.25,346.5,201.25L346.5,201.25z"/>
	</g>
</g>
<g>
	<path fill="#171314" d="M255,264c2-4.5,11-9.5,15.5-11.5c3.5-1.5,8-2.5,12-2c12,2,19.5,18.5,20,29.5c-7-10.5-12.5-17-25-18.5
		c-9.5-1.5-16-0.5-23.5,5"/>
</g>
<g>
	<path fill="#171314" d="M174.219,250.558c-14.271,3.098-22.834,37.787,0,35.929c-5.708-9.292-7.85-25.398-1.427-34.689"/>
</g>
<g>
	<path fill="#171314" d="M229,351.5c-20,3-16.5,44.5,0,37c-5-11.5-11-24-1.5-35.5"/>
</g>
<g>
	<path fill="#301D1D" d="M95.5,188c-1-3.5-3-10.5-2.5-14s-0.5-2.5,4-3.5c3.5-0.5,9.5,0.5,13.5,0.5c17.5,0,35.5,1.5,52.5-1.5
		c16.5-3,33.5-4,50-7c12-2,24-5,36-6.5c-3.5,3-9,5-13,6.5c-13.5,5.5-26,9-40,11.5s-28,3-41.5,5c-10.5,1-22,2-32,2.5
		c-7.5,0.5-20-2-25.5,4"/>
</g>
<g>
	<path fill="#2F1C1C" d="M415,137.5c7-3,15-5,22.5-5.5c5,0,6,0,8.5,4c2.5,3.5,5.5,9.5,5,13.5c-6.5,1-13-7.5-19-9.5
		c-5.5-2-10.5-3-16.5-3"/>
</g>
<g>
	<path fill="#DEDDDD" d="M361,150.5c-7,1.5-14,0-21,1.5c-5,0.5-10,2.5-14.5,4.5c-10,4-19.5,11-28,17c-8,6-14.5,9-15.5,19.5
		c-0.5,8,3.5,20.5,9,26.5c2.5-3,1.5-10.5,2.5-14.5c0.5-4,1.5-8,3-12c3-8,5-14.5,10.5-21c6.5-8.5,16.5-13,25.5-17.5
		C338,152,354.5,150,361,150.5"/>
</g>
<g>
	<path fill="#DEDDDD" d="M421.5,183c1.5,6.5,10,13,13,19c4,8,6.5,16.5,8,25.5c1.5,8,2.5,19-0.5,27c-2,6.5-6.5,21.5-12,26
		c4.5-16,7.722-38,2.722-53.5C427.722,212,424.5,198,421.5,183"/>
</g>
<g>
	<path fill="#DEDDDD" d="M188.5,202c-25,4.5-40.5,26.5-51.5,47.5c-5,9-5,19-5,29c0,9.5-1,36.188,4.5,44.188
		c1.108-7.515,1.5-29.688,2-35.188c0.5-6,1-12.5,2.5-18.5c2-11,6-21,12-30c5.5-8,11.5-16.5,19-23.5c4-4.5,11.5-13.5,17.5-15"/>
</g>
<g>
	<path fill="#DEDDDD" d="M275,385c4.412-8.824,8.813-19.123,15.158-26.739c4.578-5.494,12.293-11.577,10.379-19.776
		c-1.236-5.3-6.136-10.418-9.192-14.432c1.786,1.485,6.694,2.687,9.529,3.95c2.967,1.322,11.539,4.387,12.948,7.446
		c1.962,4.262-3.613,6.448-4.822,10.051c-3,5-5,11-7.5,16c-5,9-13,17-19,25c-5.5,7-14,10-19.5,16C269,400,272.5,390.5,275,385z"/>
</g>
<g>
	<path fill="#E57F90" d="M206.5,219.167c-2.167-1.167-7.333,2.833-8.833,4c-1.167,1-3.333,2.667-3.5,4.167
		c-0.167,2.333,2.333,3.167,4,3.5c-3.5-7,3.167-9.5,8.5-11.833"/>
</g>
<g>
	<path fill="#E57F90" d="M219,228c-3.167-0.167-6,3.333-7.333,5.667c-0.5,0.667-1.833,2.667-1.333,3.5
		c0.5,0.833,2.833,0.5,3.667,0.5c-1.833-4,1.667-7.667,5.167-9.667"/>
</g>
<g>
	<path fill="#E57F90" d="M229,236.667c-2.167,1.667-5,1.833-7,3.833c-2.5,2.5-2.5,5.5,1.667,5.5c-3.333-4.833,2.667-7.5,6-10"/>
</g>
<g>
	<path fill="#E57F90" d="M228.5,252.5c-2.333,0-4.333,0.833-6,2.5c-1.667,2-1.5,4.667,1.667,4.5c-3-3.5,1.167-6.167,4-7.167"/>
</g>
<g>
	<path fill="#E57F90" d="M250.334,322.834c-2.584-0.167-5.584,3.083-7,5c-0.583,0.833-2,2.417-1.917,3.5
		c0.167,1.333,2,1.333,3,1.333c0.083-0.916-0.417-1.75-0.333-2.666c0.167-1.167,0.75-1.917,1.417-2.834c0.75-1,1.5-2,2.5-2.75
		c0.75-0.666,1.5-1,2.25-1.5"/>
</g>
<g>
	<path fill="#E57F90" d="M261.834,331.251c-2.834,0-6.084,1.5-8.167,3.416c-0.667,0.584-1.167,1.25-1.083,2.167
		c0,0.583,0.583,2.083,1.25,2.083C253.25,335.001,258.25,332.335,261.834,331.251"/>
</g>
<g>
	<path fill="#E57F90" d="M270.084,338.584c-2.584-0.083-5.917,1.333-7.917,2.917c-1.083,0.833-2.417,2.416-0.417,3.083
		c0.334,0.083,1.417,0.417,1.667,0.25c0.5-0.25-0.417-1.75-0.417-2.417C263,340.251,268.251,339.334,270.084,338.584"/>
</g>
<g>
	<path fill="#E57F90" d="M279.75,345.186c-3.166-0.084-9.25,4.75-10.166,8.25c-0.667,3,4,4,6.083,3.75
		c-0.667-1-1.917-1.5-2.333-2.75c-0.334-0.917-0.584-2.5-0.334-3.5c0.417-1.667,2.25-2.917,3.584-3.833
		C277.5,346.436,278.667,345.519,279.75,345.186"/>
</g>
<g>
	<path fill="#E57F90" d="M266.25,123.625c-2.5,1.5-7,2.5-7.875,5.875c-0.625,2.25,2.625,3.875,4.5,3.875c0.125-2-1.25-4-1-6
		c0.25-1.75,3.5-3.25,4.75-4.125"/>
</g>
<g>
	<path fill="#E57F90" d="M280.875,129.375c-1.375,0-5.375,3.125-6.375,4c-1.125,1.125-1.875,3.5-0.25,4.5
		c1,0.75,3.375,0.5,3.375-0.875c-0.125-1.875,1.125-5.375,3.125-7.25"/>
</g>
<g>
	<path fill="#E57F90" d="M292.75,132.875c-2.625-0.25-4.75,3-4.125,5.375c0.5,2,1.75,1.125,1.75-0.5c0-1.875,0-3.375,1.75-4.5"/>
</g>
<g>
	<path fill="#DF6EAA" d="M340.375,239.5c-1.875-0.625-2.5,1.25-2.625,2.75c-0.125,1.625-0.125,2.875-0.625,4.25
		c1.25,0,2.5-2,2.75-3.25c0.375-1.75,0.5-1.875,2.5-1.875c-0.25-1.25-1.25-1.75-2.375-2.125"/>
</g>
<g>
	<path fill="#C6202C" d="M337.25,281.875c-2.625,0.125-5-2-7.25-2.75c-1.125,1.875-3.5,7.875-0.25,9.25
		c0.75-1.875-0.125-3.75,1.5-5.5c1.375-1.5,3.625,0,5.5-0.625"/>
</g>
</svg>
